<?xml version="1.0" encoding="UTF-8"?>
<svg id="Layer_1" xmlns="http://www.w3.org/2000/svg" xmlns:xlink="http://www.w3.org/1999/xlink" version="1.1" viewBox="0 0 439.4 45.4">
  <!-- Generator: Adobe Illustrator 29.1.0, SVG Export Plug-In . SVG Version: 2.1.0 Build 142)  -->
  <defs>
    <style>
      .st0, .st1 {
        fill: none;
      }

      .st2 {
        fill: #cdac6f;
        fill-rule: evenodd;
      }

      .st3 {
        fill: url(#linear-gradient);
      }

      .st4 {
        fill: #1d1d1b;
      }

      .st5 {
        clip-path: url(#clippath-1);
      }

      .st6 {
        clip-path: url(#clippath-3);
      }

      .st7 {
        clip-path: url(#clippath-2);
      }

      .st1 {
        clip-rule: evenodd;
      }

      .st8 {
        clip-path: url(#clippath);
      }
    </style>
    <clipPath id="clippath">
      <path class="st1" d="M343,.3c5.1,0,9.9,2,13.5,5.6s5.6,8.4,5.6,13.5-2,9.9-5.6,13.5c-3.6,3.6-8.4,5.6-13.5,5.6s-9.9-2-13.5-5.6c-1.4-1.4-2.6-3.1-3.5-4.8-1.1-2.2-1.8-4.5-2-6.9,0-.7,0-1.3-.3-2-.3-1.3-1-2.4-1.9-3.4-2.8-2.8-7.5-2.8-10.3,0-1.3,1.3-2.1,3.2-2.1,5.1s.7,3.7,2.1,5.1c2.8,2.8,7.5,2.8,10.3,0,.3-.3.6-.7.8-1,.8,2.9,2,5.3,3.6,7.3l-7.6,13.1h-7.8l6.1-10.5c-3.7,0-7.5-1.3-10.2-4.1-2.6-2.6-4.1-6.1-4.1-9.8s1.5-7.2,4.1-9.8c5.4-5.4,14.3-5.4,19.8,0,2.5,2.5,4,6,4.1,9.6.3,2.9,1.5,5.5,3.6,7.6,2.3,2.3,5.5,3.6,8.8,3.6s6.5-1.3,8.8-3.6c2.3-2.3,3.6-5.5,3.6-8.8s-1.3-6.5-3.6-8.8c-2.3-2.3-5.5-3.6-8.8-3.6s-6.5,1.3-8.8,3.6c-1.2,1.2-2.2,2.7-2.8,4.3-1-2.4-2.5-4.5-4.4-6,.7-1.1,1.5-2.1,2.5-3,3.6-3.6,8.4-5.6,13.5-5.6"/>
    </clipPath>
    <clipPath id="clippath-1">
      <rect class="st0" y="0" width="439.4" height="45.4"/>
    </clipPath>
    <clipPath id="clippath-2">
      <rect class="st0" y="0" width="439.4" height="45.4"/>
    </clipPath>
    <linearGradient id="linear-gradient" x1="-52.8" y1="51.2" x2="1.4" y2="105.4" gradientTransform="translate(301.7 44.7) scale(1 -1)" gradientUnits="userSpaceOnUse">
      <stop offset="0" stop-color="#ac864b"/>
      <stop offset=".2" stop-color="#ac864b"/>
      <stop offset=".7" stop-color="#cdac6f"/>
      <stop offset="1" stop-color="#cdac6f"/>
    </linearGradient>
    <clipPath id="clippath-3">
      <rect class="st0" x="5.5" y=".3" width="299.9" height="44.6"/>
    </clipPath>
  </defs>
  <g class="st8">
    <g class="st5">
      <g class="st7">
        <rect class="st3" y="0" width="439.4" height="45.4"/>
      </g>
    </g>
  </g>
  <path class="st2" d="M428,30.4c-2,0-4.1-.7-5.7-2.1l1.7-2.1c1.2,1,2.5,1.6,4,1.6s1.9-.5,1.9-1.3h0c0-.8-.5-1.2-2.7-1.7-2.7-.7-4.5-1.4-4.5-4.1h0c0-2.5,2-4.1,4.7-4.1s3.6.6,5,1.7l-1.5,2.2c-1.2-.8-2.4-1.3-3.5-1.3s-1.7.5-1.7,1.2h0c0,.9.6,1.2,2.9,1.8,2.7.7,4.3,1.7,4.3,4h0c0,2.7-2,4.2-4.9,4.2M412.4,23.3h3c1.4,0,2.3-.8,2.3-1.9h0c0-1.3-.9-2-2.3-2h-2.9v3.9ZM409.4,30.2v-13.4h6.1c1.7,0,3,.5,3.9,1.4.7.7,1.2,1.8,1.2,3.1h0c0,2.2-1.2,3.6-2.9,4.2l3.3,4.8h-3.5l-2.9-4.3h-2.3v4.3h-3ZM398.4,24.6h3.6l-1.8-4.4-1.8,4.4ZM393.1,30.2l5.8-13.5h2.7l5.8,13.5h-3.1l-1.2-3h-5.7l-1.2,3h-3ZM381.4,30.2v-13.4h10.1v2.6h-7.2v2.7h6.3v2.6h-6.3v2.8h7.3v2.6h-10.2ZM371.4,30.2v-5.3l-5.2-8.1h3.5l3.2,5.4,3.3-5.4h3.4l-5.2,8.1v5.4h-3Z"/>
  <path class="st4" d="M151.7.5h.1s-.2,1.7-.2,1.7c.9,0,1.8.2,2.6.3l.5-1.6h.1c2,.4,3.7.9,5,1.6h.1c0,0-3.3,5.5-3.3,5.5h-15.3l-3.3-5.4h.1c1.3-.7,3-1.3,5-1.7h.1s.5,1.6.5,1.6c.8-.1,1.7-.2,2.6-.3l-.2-1.7h.1c.9,0,1.8-.1,2.8-.1s1.9,0,2.8.1M150.9,1.2c-.7,0-1.3,0-2,0s-1.4,0-2,0l.2,1.7h-.7c-1,.1-1.9.2-2.8.4h-.6c0,0-.5-1.5-.5-1.5-1.4.3-2.6.7-3.5,1.1l2.6,4.3h14.4l2.6-4.3c-1-.4-2.2-.8-3.5-1.1l-.5,1.6h-.6c-.9-.2-1.8-.3-2.8-.4h-.7c0,0,.2-1.8.2-1.8M149.1,5.7c-2.6,0-5,.1-7,.4h0s.1.2.1.2h13.5l.2-.3h0c-1.9-.2-4.2-.3-6.7-.3M155.6,3.6h0c.5.1,1,.2,1.4.4h0s.4-.7.4-.7h0c-.5-.2-1-.3-1.6-.5h0s-.3.8-.3.8ZM140.8,4.1h0c.4-.1.9-.3,1.4-.4h0s-.3-.9-.3-.9h0c-.6.2-1.1.3-1.6.5h0s.5.8.5.8ZM148,3h0c.4,0,.7,0,1.1,0h.7s.1-1,.1-1h0c-.3,0-.7,0-1,0s-.7,0-1,0h0s.1,1,.1,1Z"/>
  <path class="st4" d="M147.8,28.2c-3.2-1.1-9.1-4-12.2-7.1v-9.5s-2.8-3.2-2.8-3.2h31.8l-2.7,3.2v9.5c-3.2,3.2-8.9,6.1-12.2,7.1h-1.9M136.4,20.7c3.4,3.3,9.6,6.2,12.4,7,2.8-.7,9-3.7,12.4-7v-9.4l1.8-2.1h-28.4l1.8,2.1v9.4"/>
  <path class="st4" d="M146.9,33.4v-4.1h3.7v4l-.3-.2v-3.5h-3v3.6l-.3.2M145.5,35h-3.7v3h3.7l.2.3h-4.2v-3.7h4.2l-.2.3ZM147.2,39.7v3.8h3v-3.7l.3-.2v4.2h-3.7v-4.3l.3.2ZM152,38h3.6v-3h-3.6l-.2-.3h4.1v3.7h-4.1l.2-.3ZM149.8,28.2h1.9s0,4.2,0,4.2c.6.1,1,.5,1.1,1.1h4.3v6h-4.3c-.1.6-.5,1-1.1,1.1v4.4h-6v-4.4c-.5-.2-.9-.5-1.1-1.1h-4.3v-6h4.3c.1-.6.5-1,1.1-1.1v-4.2h2.1M145.9,33.2c.2,0,.3-.1.3-.1h0c0-.1-.4-.1-.7.3-.2.3-.3.7-.3.9h.6c.1,0,.2-.1.4-.3.2-.2.3-.3.3-.5v-.3h-.1c0-.1-.1,0-.1,0h.1c0,.1,0,.2,0,.3l-.5-.4M146.3,33.7c0,0,0,.1-.1.2,0,0-.1.1-.2.2l-.3-.7s0,0,.1,0l.5.4M145.9,34.1h0c-.2.2-.4.2-.4-.1h.5ZM145.8,34h-.4c0-.2,0-.3.1-.4,0,0,0,0,0-.1l.2.5ZM152,33.6c0,.2.1.3.1.3h.1s0-.4-.4-.7c-.3-.2-.7-.3-.9-.3v.7c0,.1.1.2.2.3.4.3.7.4.7.4l.2-.2h-.2c0-.1-.1,0-.1,0,0,0,0,0-.2,0l.4-.5M151.5,34c0,0-.1,0-.2-.1,0,0-.1-.1-.2-.2l.7-.3s0,0,0,.1l-.4.5M151.1,33.6h0c-.1-.3-.1-.5.2-.5v.5ZM151.2,33.5v-.4c.2,0,.3,0,.4.1,0,0,0,0,.1,0l-.5.2ZM151.6,39.7c-.2,0-.3.1-.3.1h0c0,.1.4.1.7-.3.2-.2.3-.6.3-.9h-.8c0,0-.1.1-.2.2-.2.2-.3.4-.4.6h0c0,.1.2.3.2.3v-.2c.1,0,0-.1,0-.1,0,0,0,0,0-.2l.5.4M151.2,39.2c0,0,0-.1.1-.2,0,0,.1-.1.2-.2l.3.7s0,0-.1,0l-.5-.4M152,38.7c0,0,0,0,0,.2h-.5c0-.1,0-.2,0-.2,0,0,0,0,0,0h.3ZM151.7,38.9h.4c0,.2,0,.3-.1.4,0,0,0,0,0,.1l-.2-.5ZM145.5,39.3c0-.2-.1-.3-.1-.3h-.1s0,.4.4.7c.3.2.6.3.9.3v-.8c0,0-.1-.2-.2-.2-.2-.1-.3-.2-.4-.3h-.3s0,.1,0,.1h.2c0,.1.1,0,.1,0,0,0,0,0,.2,0l-.4.5M146,38.9c0,0,.1,0,.2.1,0,0,.1.1.2.2l-.7.3s0,0,0-.1l.4-.5M146.4,39.3h0c0,.3.1.5-.2.5v-.5ZM146.3,39.4v.4c-.2,0-.3,0-.4-.1,0,0,0,0-.1,0l.5-.2ZM145.9,34.3h-4.8v4.4h4.8l.6.6v4.9h4.4v-4.8l.6-.6h4.8v-4.4h-4.7l-.7-.7v-4.6h-4.4v4.7l-.7.7Z"/>
  <path class="st4" d="M149,39.4s0,0,0-.1c0,0,0,0,0,0h0s0,0,0,0h0s0,0,0,0c0,0,0,0,0,0,0,0,0,0-.1,0,0,0,0,0,0,0h0s0,0,0,0h0s0,0,0,0h0s0,0,0,0c0,0,0,0,0,0,0,0,0,0,0,0s0,0,0,0h0s0,0,0,0h0c0,0,0,0,0,.1,0,0,0,0,0,0,0,0,0,0,0,0,0,0,0,0,0,0h0s0,0,0,0h0s0,0,0,0c0,0,0,0,0,0,0,0,0,0,0,0,0,0,0,0,0,0h0s0,0,0,0h0s0,0,0,0c0,0,0,0,0,0M148.9,39.4s.1,0,.1,0c0,0,0,0,0,0,0,0,0,0,0,0,0,0,0,0,0,0,0,0,0,0,0,0h0c0,.1-.1,0-.1,0,0,0,0,0,0,.1,0,0,0,0,0,0,0,0,0,0,0,0,0,0,0,0,0,0,0,0,0,0,0,0h0c0,0,0,0,0,0,0,0,0,0,0,0,0,0,0,0,0,0,0,0,0,0,0,0,0,0,0,0,0,0,0,0,0,0,0,0h-.1c0,0,.1,0,.1,0,0,0,0,0,0,0,0,0,0,0,0,0,0,0,0,0,0,0,0,0,0,0,0,0,0,0,0,0,0,0h0c0-.1,0,0,0,0,0,0,0-.1,0,0,0,0,0,0,0,0,0,0,0,0,0,0,0,0,0,0,0,0,0,0,0,0,0,0h.1s-.1,0-.1,0Z"/>
  <path class="st4" d="M149,39.4h0c0,0-.2,0-.2,0v-.2h0v.2s-.2,0-.2,0h0c0,0,.2.2.2.2h0c0,0,0,0,0,0,0,0,0,0,0,0,0,0,0,0,0,0h0c0,0,0,.1,0,.1h.1c0-.1,0-.1,0-.1,0,0,0,0,0,0h-.1c0,.1.1,0,.1,0h-.2c0,0,.2,0,.2,0v-.2s0,.2,0,.2h.2s-.2,0-.2,0v.2c.1,0,0-.1,0-.1,0,0,0,0,0,0,0,0,0,0,0,0,0,0,0,0,0,0h0s0,0,0,0c0,0,0,0,0,0,0,0,0,0,0,0h0s.1.1.1.1h0s0-.2,0-.2h.2"/>
  <path class="st4" d="M148.7,39.4s0,0,0,0,0,0,0,0,0,0,0,0,0,0,0,0M148.7,39.4s0,0,0,0,0,0,0,0,0,0,0,0,0,0,0,0Z"/>
  <path class="st4" d="M148.8,39.4s0,0,0,0,0,0,0,0,0,0,0,0,0,0,0,0M148.8,39.4s0,0,0,0,0,0,0,0,0,0,0,0,0,0,0,0Z"/>
  <path class="st4" d="M148.7,39.5s0,0,0,0,0,0,0,0,0,0,0,0,0,0,0,0M148.7,39.5s0,0,0,0,0,0,0,0,0,0,0,0,0,0,0,0Z"/>
  <path class="st4" d="M148.7,39.5s0,0,0,0,0,0,0,0,0,0,0,0,0,0,0,0M148.7,39.5s0,0,0,0,0,0,0,0,0,0,0,0,0,0,0,0Z"/>
  <path class="st4" d="M148.5,39.5s0,0,0,0,0,0,0,0,0,0,0,0,0,0,0,0M148.6,39.5s0,0,0,0,0,0,0,0,0,0,0,0,0,0,0,0Z"/>
  <path class="st4" d="M148.5,39.5s0,0,0,0,0,0,0,0,0,0,0,0,0,0,0,0M148.6,39.5s0,0,0,0,0,0,0,0,0,0,0,0,0,0,0,0Z"/>
  <path class="st4" d="M148.8,40.1c-2,0-3.6-1.6-3.6-3.6s1.6-3.6,3.6-3.6,3.6,1.6,3.6,3.6-1.6,3.6-3.6,3.6M148.8,32.9c-2,0-3.6,1.6-3.6,3.6s1.6,3.6,3.6,3.6,3.6-1.6,3.6-3.6-1.6-3.6-3.6-3.6Z"/>
  <path class="st4" d="M145.2,36.4c0-2,1.6-3.6,3.6-3.6s3.6,1.6,3.6,3.6-1.6,3.6-3.6,3.6-3.6-1.6-3.6-3.6M145.4,36.4c0,1.9,1.5,3.4,3.4,3.4s3.4-1.5,3.4-3.4-1.5-3.4-3.4-3.4-3.4,1.5-3.4,3.4"/>
  <path class="st4" d="M145.8,37.5c0,0,0,0,0,.1h0s-.1-.4-.1-.4c0,0,0,0,.1,0h0c0,0,0,0,0,0,0,0,0,0,0,0h0c0,0,0,0,0,0h.2c0,0,0-.1,0-.1,0,0,0,0,0,0h0s.2,0,.2,0h0c0,0,0,0,0,.1h0c0,0,.1,0,.1,0,0,0,0,0,0-.1h0s0,.3,0,.3h0c0,0,0,0-.1,0h-.3M145.5,36.4c0-.2.1-.3.3-.3.2,0,.3.2.3.3,0,.2-.2.3-.3.3-.2,0-.3-.2-.3-.3M145.8,36.6c.2,0,.3,0,.3-.2,0,0,0-.2-.2-.2-.1,0-.3,0-.3.2,0,0,0,.2.2.2M146.1,35.6c0,0,0,0,.1,0h0s0,.3,0,.3h0c0,0,0,0,0-.1h-.3c0-.1,0-.1-.1,0h0s.1-.3.1-.3c0,0,0,0,0-.1,0,0,0,0,.1,0,0,0,0,0,0,.2,0,0,0,0,.1,0,0,0,0,0,.1,0,0,0,0,0,0,0h0s0,0,0,0c0,.1,0,.1-.1.1,0,0-.1,0-.2,0,0,0,0,0,0,0h0s0,0,0,0ZM145.9,35.5h0c0,0,0,0,0-.1,0,0,0,0,0,0,0,0-.1,0-.1,0,0,0,0,0,0,0h.2ZM146.9,34c0,0,0,0-.1-.1,0,0,0,0-.1,0-.1.1-.2.3,0,.5.1.1.3.1.4,0,0,0,0-.1.1-.2,0,0,0,0,0,0h0c0,0,0,0,0-.1h0s-.2.2-.2.2h0c0,0,0,0,.1,0h0c0,0,0,.1,0,.1-.1,0-.2,0-.3,0-.1-.1,0-.2,0-.3,0,0,.1,0,.2,0h0ZM147.5,33.8h.1c0,0-.1-.2-.1-.2h0s0,.2,0,.2ZM147.7,33.9h0s0,0,0,0h0c0,0-.2,0-.2,0,0,0,0,0,0,0,0,0,0,0,0,0h0s0,0,0,0h-.2c0,0,0,0,0,0,0,0,0,0,0-.1v-.5s0,0,0,0l.3.4c0,0,0,0,.1,0h0s-.3.1-.3.1h0ZM148.7,33.8s0-.1,0-.2h0c0,0,0,0,0,0,0,0,0,0,0,0,0,0,0,0,0,0,0,0,0,0,0,0v-.3c0,0,0,0,0-.1h0s-.3,0-.3,0h0c0,0,0,0,0,.1v.3c0,0,0,0,0,.1h0s.5,0,.5,0ZM149.5,33.9s0-.1,0-.2h0s0,0,0,0c0,0,0,0,0,0,0,0,0,0,0,0,0,0,0,0,0,0v-.3c0,0,0,0,.2,0h0s-.3,0-.3,0h0c0,0,0,0,0,.1v.3c0,0,0,0-.2,0h0s.5.1.5.1ZM150,33.9h.1c0,0,0-.1,0-.1h0s-.1.1-.1.1ZM150,34.1h0s0,0,0,0h0c0,0-.1-.2-.1-.2,0,0,0,0,0,0,0,0,0,0,0,0h0s0,0,0,0h-.2c0-.1,0-.1,0-.1,0,0,0,0,.1,0l.4-.3h0s0,.5,0,.5c0,0,0,0,0,.1h0s-.2-.1-.2-.1h0ZM151.1,34.6c0,0,0,0,.1-.1,0,0,0,0,0,0h0s-.2-.2-.2-.2h0c0,0,0,0,0,.1,0,0,0,0-.1.1h0c0,0,0,0,0,0v-.5s0-.1,0-.1h0c0,0,0,.1,0,.2h-.1c0,.2,0,.2-.1.2,0,0,0,0,0,0h0s.2.2.2.2h0c0,0,0,0,0-.1,0,0,0,0,.1-.1h.1c0-.1,0-.1,0-.1v.5c0,0,0,0,0,0l.2-.2ZM151.7,35.2h0c0,0,0,.1,0,.1,0,0,0,0,0,0h0s.1,0,.1,0h0s0,0,0,0l-.2-.3s0,0,0,0h0s0,0-.2,0h0s0,0,0,0c0,0,0,0,0,0h0s-.3.2-.3.2c0,0,0,0-.1,0h0s.1.3.1.3h0c0,0,0-.1,0-.1l.3-.2ZM151.5,36.1c0,0,0,0,0,0h0s0-.3,0-.3h0c0,0,0,0,.1,0h.3c0,0,0,0,0-.1h0s0,.3,0,.3c0,0,0,.1,0,.1,0,0,0,0-.1,0,0,0-.1,0-.2-.1,0,0,0,0-.1,0,0,0,0,0,0,0,0,0,0,0,0,0h0s0,0,0,0c0-.1,0-.1,0-.2,0,0,0,0,.1,0,0,0,0,0,0,0h0s0,0,0,0ZM151.7,36.1h0c0,0,0,0,0,.1,0,0,0,0,.1,0,0,0,.1,0,.1-.1,0,0,0,0,0,0h-.2ZM151.4,37.2c0,0,0,0,.1,0h0s0,0,0,0c0,0,.1.1.2.1,0,0,0,0,0,.1h0s0-.2,0-.2h0s0,0,0,0c0,0,0,0,0,0,0,0-.1,0-.2-.1h.2c0,0,0,0,0,0h0s0,0,0,0v-.3c0,0,0,0,0,0,0,0,0,0,0,0h-.2c0,0,0,0,0,0h0c0,0,0,0,0-.1h0s0,.3,0,.3h0Z"/>
  <path class="st4" d="M146.2,36.4c0-1.4,1.2-2.6,2.6-2.6s2.6,1.2,2.6,2.6-1.2,2.6-2.6,2.6-2.6-1.2-2.6-2.6M148.8,34c-1.3,0-2.4,1.1-2.4,2.4s1.1,2.4,2.4,2.4,2.4-1.1,2.4-2.4-1.1-2.4-2.4-2.4"/>
  <path class="st4" d="M147.1,37.1h0s0,0,0,0h0s0,0,0,0h0c0,.1,0,.1,0,.1h0c0,0,0,0,0,0,0,0,0,0,0,0h0c0,0,0,0,0,0s0,0,0,0c0,0,0,0,0-.1h0c0,0,0,0,0-.1h0c0,0,0-.2,0-.2,0,0,0,0,0,0h0c0,0,0-.1,0-.1s0,0,0,0h0c0-.1-.1-.2-.1-.3s.1-.5.4-.4c.3.1.4.1.5,0,0,0,0,0,.1-.1h0c0,0,0-.1,0-.1h0s0,0,0,0c0,0,0,0,0-.1h0s0,0,0,0c0,0,0,0,0,0,0,0,0,0,0,0,0,0-.1,0-.2.1-.2,0-.3-.1-.4-.3,0,0,0,0,.1-.1,0,0,0,0,0,0,0,0,0-.2,0-.3,0,0,.1,0,.2,0h0c0,0,0-.1,0-.2,0,0,0,0,0,0h0s0,0,0,0c0,0,0,0,0,0h0c0,0,0,0,0,0,0,0,0,0,0,0,0,0,0,0,.1,0h0s0,0,0,0c0,0,0,0,0,0h0s0,0,0,0h0c0,0,.1,0,.2,0,0,0,0,0,0,0,0,0,0,0,.1,0,0,0,0,0,0,0,0,0,0,0,0,0h0c0,0-.1,0-.2,0,0,0,0-.1,0-.1,0,0,0,0,0,0h0s0,0,0,0c0,0,0,0,.1,0h.2s0,0,0,0c0,0,0,0,0,0,0,0,0,0,.1,0h.1c.1,0,.4.2.4.2,0,0,0,0,.1.1h0s0,0,0,0c0,0,0,0,0,0h0c0,.1,0,.1.1.2,0,0,.1,0,.2,0,0,0,0,.1,0,.2,0,0,0,0,0,0,0,0,0,.1,0,.2h0s0,0,0,0h0c0,0,0,.1,0,.1h0s0,0,0,0c0,0,0,0,0,.1,0,0,0,0,0,0h0c0,0,0,.1,0,.2,0,0,0,0,0,0h0c0,.1,0,.1,0,.2h0c0,0,0,0,0-.1h0c0,0,.1-.1.2-.1s0,0,0,0c0,0,.1.1.2.2,0,0,.1,0,.2.1h0s0,0,0,0c0,0,0,0,0,0h0c0,.1,0,.1,0,.2,0,0,0,0,0,.1,0,0,0,0,0,0-.1,0-.2,0-.2,0,0,0,0,0,0,0,0,0,0,0,0,0,0,0-.3-.3-.4-.3s0,0-.1,0h0c0,0,0,.1,0,.1h0c0,0,.1,0,.1,0h.1c0,0,0,0,.1,0v.2c.2,0,.2,0,.2.1,0,0,0,0,0,0,0,0,0,0,.1,0,0,0,.1.1.1.2-.2,0-.3,0-.4,0h0s0,0,0,0c0,0,0,0,0,0,0,0,0,0,0,0,0,0,0,0,0,0,0,0-.1-.1-.3-.1,0,0,0,.1-.1.2,0,0,0,.1,0,.2,0,0,.1,0,.2,0,0,0,0,0,0,0,0,0,0,0,0,0,0,0,0,0,0,0h0s0,0,0,.1c0,0,0,0,0,0,0,0,0,0,0,0,0,0,0,0,0,.1,0,0,0,0,.1.1h0s0,0,0,0c0,0,0,0,0,0h0c0,0,0,.2,0,.2h0c0,0,0,0,0,0,0,0,0,0,0,.1,0,0,0,0,0,0h0c0,0,0,.1-.1.1h0c0,0,0,.1,0,.1,0,0,0,0,0,0,0,0-.1,0-.2,0,0,0,0,0,0,0h0s0,0-.1,0c0,0,0,0,0,0h0c0,0,0,0-.1,0,0,0-.1,0-.2,0,0,0-.1,0-.2,0,0,0,0,0-.2,0,0,0,0,0,0,.1h0c-.1.1-.2.1-.3,0,0,0,0,0,0,0,0,0,0,0-.1,0h-.1s0,0,0,0c.3.1.8.3.9.3,0,0,0,0,0,0h0s0,0,.1,0c0,0,0,0,0,0-.2,0-.2,0-.3,0,0,0-.1,0-.1,0l-.9-.4s0,0-.1,0h-.1s0,0,0,0c0,0,0,0-.1,0,0,0,0,0,0-.1,0,0,0,0,0,0h0s-.9-.4-.9-.4v-.2c.1,0,.7.3.7.3h0c0,0,.1,0,.1,0h0c0-.1,0-.2-.1-.2,0,0-.1-.1-.2-.2,0,0,0,0,0-.1h0c0,0,0,0,0-.1,0,0,0,0,0,0,0,0,0,0,0,0,0,0,0,0,0,0h0c0,0,0-.1,0-.1h0c-.2,0-.3-.3-.3-.5,0,0-.1,0-.2,0,0,0,0,0,0,0,0,0,0,0-.1,0,0,0,0,0,0,.1h0c0,0,0,.1,0,.1,0,0,0,0,0,0h0s0,.1,0,.1c0,0,0,0,0,0v.2c0,0,0,0,0,0,0,0,0,0,0,0h0M147.1,37.1s0,0,0,0h0s0,0,0,0h0ZM149.5,36.8h0s0,0,0,0h0s0,0,0,0h0s0,0,0,0c0,0,0,0,0,0s.1,0,.2.1h0s0,0,0,0c0,0,0,0,0,0M147.7,35h0s0,0,0,0h0s0,0,0,0h0s0,0,0,0c0,0,0,0,0,0h0s0,0-.1,0h0s0,0,0,0c0,0,0,0,0,0h0s0,0,0,0ZM147.1,35.2s0,0,0,0h0s0,0,0,0c0,0,0,0,.1,0h0s0,0,0,0h0s0,0,0,0h0s0,0,0,0h.1s0,0,0,0h0s0,0,0,0h0s0,0,0,0h-.1c0,0-.2,0-.2,0s0,0,0,0h0s0,0,0,0,0,0,0,0h0s0,0,0,0c0,0,0,0,0,0,0,0,.2,0,.2,0M146.9,35.4s0,0,0,0c0,0,0,0,0,0,0,0,0,0,0,0,0,0,0,0,0,0h0c0,0,0,.1,0,.2h0M147.8,34.9h0s0,0,0,0c0,0,0,0,0,0h0s0,0,0,0c0,0,0,0,0,0,0,0,0,0,0,0,0,0,0,0,0,0,0,0,0,0,0,0,0,0,0,0,0,0h0s0,0,0,0ZM146.9,35.4s0,0,0,0c0,0,0,0,0,0,0,0,0,0,0,0,0,0,0,0,.1,0,0,0,0,0,0,0,0,0,.1,0,.2-.1.1,0,.2-.1.2-.1,0,0,0,0,.1-.1h0c0,0,0-.1,0-.1h0c0,0-.1,0-.2,0,0,0-.2,0-.3,0h0c0,0,0,0,0,0,0,0,0,0-.1,0,0,0,0,0,0,0h0M147.4,34.8h0s0,0,0,0h.2s0,0,0,0c0,0,0,0,0,0h0s0,0,0,0c0,0,0,0,0,0h0s0,0,0,0ZM147.8,34.7h0s0,0,0,0c0,0,0,0,0,0,0,0,0,0,0,0h.1s0,0,0,0h0s0,0,0,0c0,0,0,0,0,0h0ZM148,34.7s0,0,0,0h0s0,0,0,0h0s0,0,0,0ZM149.8,36.1c0,0,0,.1,0,.2h0c.1-.2.2-.3.4-.3.1,0,.2.1.3.2,0,0,.1.1.2.1,0,0,0,0,0,0,0,0,0,0,0,0-.1,0-.4-.2-.5-.3,0,0,0,0,0,0-.1,0-.3.2-.4.3M147.7,36.1c.1.1.2.2.3.3h0s0,0,0,0c0,0,0-.1-.2-.2,0,0-.2-.2-.3-.2l.2.2ZM149.8,37.6s0,0,0,0,0,0-.1,0h0c0,0,0,0,0,0,0,0,0,0,0,0M149.4,37.2s0,0,0,0c0,0,0,0,0,0h0s0,0,0,0c0,0,0,0,0,0,0,0,0,0,0,0h0s0,0,0,0c0,0,0,0,0,0h0s0,0,0,0h0s0,0,0,0c0,0,.1,0,.3,0h0s0,0,0,0c0,0,0,0,0,0M149.3,37.3h0s0,0,0,0h0s0,0,0,0h0s0,0,0,0h0s0,0,0,0h0ZM149.4,37.4s0,0,0,0h0s0,0,0,0h0c0,0,.1,0,.2,0h0s0,0,0,0ZM149.3,37.3h0s0,0,0,0c0,0,0,0,0,0,0,0,0,0,0,0h0ZM147.2,34.9h0s0,.1,0,.1c0,0,0,0,0,0,0,0,0,0,.1,0,0,0,0,0,0,0,0,0,0,0,0,0h0s0,0,0,0h0s0,0,0,0h0s0,0,0,0h0ZM148.9,34.3s0,0,.1,0h0c0,0,0,.1,0,.2s0,.1-.1.1c0,0,0,0,0,0,0,0,0,0,0,0,0,0,0,0,0,0h0s0,0,0,0c0,0,0,0-.1-.1,0,0-.1-.1-.2-.1s0,0-.1,0c0,0,0,0,0,0h0c0,0,0,.1,0,.1h0s0,0,0,0c0,0,0,0,0,0h0s0,0,0,0c-.1,0-.2,0-.3,0,0,0-.1,0-.2,0,0,0,0,0,0,0,0,0,0,0,.1,0,0,0,.1,0,.2,0,0,0,0,0,0,0,0,0,.1,0,.2,0,0,0,0-.1.1-.2,0,0,0,0,.1,0M149,34.4h0s0,0,0,0c0,0-.2,0-.2.1,0,0,0,0,0,0h.3s0,0,0,0c0,0,0,0,0,0h0ZM148.2,38h0s0,0,0,0c0,0,0,0,0,0,0,0,0,0,0,0,0,0,0,0,0,0h0s0,0,0,0h0s0,0,0,0c0,0,0,0,0,0h0c0,0-.6-.2-.6-.2h0s.9.4.9.4l1,.3-.5-.2-.4-.2c-.2,0-.4-.2-.4-.2h0s0,0,0,0h0s0,0,0,0c0,0,0,0,0,0,0,0,0,0,0,0h0s0,0,0,0h0s0,0,0,0c0,0,0,0,0,0h0s0,0,.1,0h0s0,0,0,0ZM148.4,37.9c0,.1,0,.2,0,.2h0s0,0,0,0c0,0,0-.1,0-.1h0s0,0,0,0c0,0,0,0,0,0,0,0,0,0,0,0h0M148.3,37.8s0,0,0,0h0s0,0,0,0c0,0,0,0,0,0h0s0,0,0,0h0s0,0,0,0h0M148,38.1h0s0,0,0,0h0ZM149.8,35.1s0,0,0,0c0,0,0,0,0,0,0,0,0,0,0,0,0,0,0,0,.1,0,0,0,0,0,0,0,0,0,0,0,0,0-.1,0,0,0,0,.1,0,0,0,0,0,0h0ZM150.5,37.2s0,0,0,0h0s0,0,0,0h0s0,0,0,0c0,0,0,0,0,0h0s0,0,0,0c0,0-.1-.1-.2-.2,0,0,0,0,0,0h0s0,0,0,0h0s0,0,0,0h0s0,0,0,0c0,0,0,0,0,0,0,0,0,0,0,0h0s0,0,0,0c-.1,0-.2,0-.4,0,0,0,0,0,0,0h0c0,0,0,0,0,0,0,0,0,.1,0,.2,0,0,0,0,0,0,0,0,0,0,0,0,0,0,0,0,0,0h0s0,0,0,0c0,0,0,0,0,0h0s0,0,0,0h0s0,0,0,0c0,0,0,0,0,0h0s0,0,0,0h-.1c0,0-.1,0-.1,0,0,0,0,0,0,0h0s0,0,0,0h0c0,0,0,0,0,0h0c0,0,0,0,0,0h0s0,0,0,0h0s0,0,0,0h0s0,0,0,0c0,0,0,0,0,0,0,0,0,0,0,0h0s0,0,0,0h0s0,0,0,0c0,0,0,0,0,0,0,0,0,0,0,0s0,0-.1,0h0s0,0,0,0c0,0-.1,0-.2,0,0,0-.1,0-.2.1h0s0,0,0,0h0s0,0,0,0c0,0,0,0,0,0,0,0,0,0,0,0,0,0,0,0,0,0h0s0,0,0,0h.2,0s0,0,0,0c0,0,0,0,0,0,0,0,0,0,0,0h0s0,0,0,0h0s0,0,0,0h0s0,0,0,0c0,0,0,0,0,0h0s0,0,0,0c0,0,0,0,0,0h0c0,0,0,0,0,.1h0s0,0,0,0c0,0,.2,0,.2,0h0s0,0,0,0h0s0,0,0,0c0,0,0,0-.1,0,0,0,0-.1,0-.1,0,0,0,0,0,0h0s0,0,0,0c0,0,0,0,0,0,0,0,0,0-.1,0,0,0,0,0,0,0,0,0,0,0,0,0,0,0,0,0,0,0h0c0,0,0,0,.1,0,0,0,0,0,0,0h0s0,0,0,0h0s0,0,0,0c0,0,0,0,0,0,0,0,0,0,0,0,0,0,0,0-.1.1,0,0,0,0-.1,0,0,0,0,0,0,0h0s0,0,0,0h.1c0,0,0,0,.1,0,.1,0,.4,0,.5,0,0,0,.2,0,.2,0h0s0,0,0,0h0c0,0,0,0,0,0,0,0,0,0,0,0,0,0,0,0,0,0h0s0,0,0,0c0,0,.1,0,.1,0h0s0,0,0,0h0s0,0,0,0c0,0,0,0,.1-.1h0c0,0,0-.1,0-.1,0,0,0,0,0,0h0s0,0,0,0h0c0,0,0,0,0,.1,0,0,0,0-.1,0,0,0,0,0-.1,0h0c.1-.1.2-.2.2-.2h0c0,0,0-.1,0-.1h0s0,0,0,0c0,0,0,0,0,0,0,0,0,0,0,0,0,0,0,0-.1,0,0,0,0,0-.1,0h0s0,0,0,0h0s0,0,0,0c0,0,0,0,0,0,0,0,0,0,0,0,0,0,0,0,0,0,0,0,0,0,0,0,0,0,0,0,0,0,0,0,0,.2,0,.2h0s0,0,0,0c0,0,0,0,0,0,0,0,0,0,0,0,0,0,0,0,0,0h0s0,0,0,0c0,0,.1,0,.1,0,0,0,0,0,0,0h0s0,0,0,0c0,0-.2-.2-.1-.3,0,0,0,0,0,0,0,0,.1,0,.2,0h0s0,0,0,0c0,0,0,0,0,0,0,0,0,0,0,0,0,0,0,0,0,0h0c0,0,0,0,0,.1,0,0,0,0,0,0,0,0,0,0,0,0,0,0,0,0,0,0h0M150.6,37.3h0s0,0,0,0h0ZM149.5,37.6s0,0,0,0h0s0,0,0,0c0,0,0,0,0,0s0,0,0,0h0s0,0,0,0c0,0,0,0,0,0M150.5,37.1s0,0,0,0c0,0,0,0,0,0h0s0,0,0,0c0,0,0,0,0,0h0s0,0,0,0h0s0,0,0,0h0s0,0,0,0c0,0,0,0,0,0M150.8,36.9s0,0,0,0h0s0,0,0,0c0,0,0,0,.2,0,0,0,0,0,0,0h0s0,0,0,0M150.8,36.3h0s0,0,0,0c0,0,0,0,0,0h0s0,0,0,0c0,0,0,0,0,0,0,0,0,0,0,0h0s0,0,0,0ZM148.5,34.7s0,0,0,0c0,0,0,0,0,0h0s0,0,0,0h0ZM148.9,34.7h-.1c0,0,0,0,0,0,0,0-.1.1-.2.1,0,0,0,0,0,0,0,0,0,0,0,0h0c0,0,0,0,0,0h0s-.2,0-.2.1h0s0,0,0,0h0s0,0,0,0h0c0,0,0,0,0,.1,0,0,0,0,0,0h0c0,0,0,.1,0,.2h.2s0,0,0,0c0,0,0,0,0,0h0c0,0,0,0,0,0,0,0,0,0,0,0h0s0,0,.1,0h0s0,0,0,0c0,0,0,0,0,0h0c0-.1,0-.1,0-.1h0s0,0,0,0c0,0,0,0,0,0,0,0,0,0,0,0,0,0,0,0,0,0h0s0,0,0,0h0ZM148.8,34.9h0s0,0,0,0c0,0,0,0,0,0h0ZM148.7,35.7s0,0,0,0c0,0,0,0,0,0,0,0,0-.1,0-.2,0-.1,0-.1,0-.2h0c0,0,0,0,0,0h0c0,0-.1,0-.2,0,0,0,0-.1,0-.2,0,0,0,0-.1,0,0,0,0,0,0,0,0,0,0,0,0,0h0s0,0,0,0h0s0,0,0,.1h0s0,0,0,0h0c0,0,0,.1,0,.2h0c0,0,0,0,0,.1,0,0,0,0,.1-.1h0c0,0,0,0,0-.1,0,0,0,0,.1,0h0s0,0,.1,0c0,0,0,0,0,0h0s0,0,0,0c0,0,0,0,0,0,0,0,0,0,0,0h0c0,.1,0,.2,0,.2,0,0,0,0,0,.1,0,0,0,0,0,0,0,0,0,0,0,0s0,0,0,0c0,0,0,0,0,0,0,0,0,0,0,0,0,0,0,0,0,0,0,0,0,0,.1,0h.2s0,0,0,0h0c0,0,.1,0,.1,0,0,0,0,0,0,0,0,0,0,0,0,0h0c0,0,0,0,0,.1,0,0,0,0,0,0h0s0,0,0,.1c0,0,.1.2.2.2,0,0,0,0,0-.1h0s0-.1,0-.1h0c0,0,0,0,0-.1,0,0,0,0,0-.1,0,0,0,0,0,0,0,0,0,0,0,0,0,0-.2-.1-.3-.1,0,0-.1,0-.2,0,0,0-.1,0-.2,0h0c0,0,.2,0,.2,0,0,0,.1,0,.2,0h0s0,0,0,0c0,0,.2,0,.3,0,0,0,0,0,0,0,0,0,0,0,0,0h0c0,.1,0,.2,0,.2,0,0,0,0,0,0h0c0,0,0,.1,0,.2,0,0,.3,0,.4,0,0,0,.1,0,.2,0,0,0-.1,0-.2,0,0,0-.2,0-.2-.1h0s0,0,0,0c0,0,0,0,.1,0,0,0,0-.2,0-.2,0,0,0-.1,0-.1,0,0,0,0,0,0h0c0-.1,0-.2,0-.2,0,0,0,0,0,0,0,0,0,0,0,0h0s0,0,0,0h-.1c0,0-.2.1-.3.2,0,0,0,0-.1.1,0,0,0,0,0,0,0,0,0,0-.1,0h0ZM148.6,35.5s0,0,0,0h0c0,.1,0,.1,0,.2,0,0,0,0,0,0M148.9,35h0c0,0,0,0,0,.1h0s0,0,0,0h0c0,0,0,.1,0,.2h0c0,0,.2,0,.2,0h.2c0,0,0-.1,0-.1,0,0,0,0,0,0,0,0,0,0,0,0,0,0,0,0,0,0,0,0,0,0,0,0h0s0,0,0,0c0,0,0-.1.1,0h0s0,0,0,0c0,0,0,0,0,0,0,0,0,0,0,0,0,0,0,0,0,0h0s0,0,0,0c0,0,0,0,0,0h0c0,0,0,0,.1,0h0c0,0,0,.1,0,.1,0,0,0,0,0,0,0,0,0,0,0,0h0s0,0,0,0c0,0,0,0-.1-.1,0,0,0,0-.2,0,0,0,0,0,0,0h0v.2h0s0,0,0,0h0s0,0,0,0h0c0,0,0,0,0,0h0c0,.1,0,.1,0,.1h0c0,0,0,0,0,.1h0ZM149.4,35.1h0c0,0,0,.2,0,.2,0,0,.1,0,.2-.1,0,0,0,0,0,0s0,0,0,0c0,0,0,0,0,0h0ZM150.2,36.4h0s0,0,0,0h0c0,0,.2,0,.2,0,0,0,0,0-.1,0h0ZM150.5,36.7s0,0,0,0h0c0,0,0,0,0,0,0,0,0,0,.1,0,0,0,0,0,0,0,0,0-.2-.1-.2-.2,0,0,0,0,0,0M149.7,36.6c0,0-.2,0-.2,0h0c0,0,0,0,.2.2h0c0,0,0-.1.1-.2h-.1M149.7,37.1h0s0-.1,0-.1c0,0,0-.2,0-.2,0,0,0,0,0-.1,0,0,0,0-.1.1,0,0,0,0,0,.1h0c0,.1,0,0,0,0,0,0,0,0,0,0s0,0-.1,0c0,0,.1,0,.2.2h0ZM149,36.7h0s0,0,0,0h0s0,0,0,0h0s0,0,0,0c0,0,0,0,0,0v-.2c-.2,0-.2,0-.2,0,0,0,0,0,0,0,0,0,0,0,0,0,0,0,0,0,0-.1h0s-.3,0-.3,0c0,0,0,0-.1,0h0s0,0,0,0c0,0,0,0,0,0h0c0,0,0,0,0,0h0c0,0,0,0,0-.1,0,0-.2,0-.3,0,0,0,.1.1.2.2,0,0,0,0,0,.1,0,0,0,0,0,0,0,0,0,0,0,0,0,0,0,0,0,0,0,0,0,0,0,0,0,0,0,0-.1-.1,0,0,0,0-.1-.1h0c0,0-.2,0-.2.1,0,.1,0,.2,0,.3,0,.1.2.2.3.1h0s0,0,0,0c0,0,0,0,0,0,0,0,0,0,0,0,0,0,0,0,0,0,0,0,0,0,0,0h0s0,0,0,0c0,0,0,0,0,0,0,0,0,0,0,0h0c0,0,0,.1,0,.1h0c0,.1.1.2.2.3h0c0,0,0,.1,0,.1h0s0,0,0,0c0,0,0,0,0,0-.2-.2-.4-.4-.4-.5s0,0,0,0c0,0,0,0,0,0h0c0,0,0-.1,0-.1,0,0,.1,0,.2-.1h0c0,0,0-.1,0-.1,0,0,0,0,0,0s0,0,0,0h0c0,0,0-.1,0-.1h0s0,0,0,0,0,0,0,0h0s0,0,0,0h0s0,0,0,0h0c0,0,.1,0,.2,0,0,0,0,0,.1,0,0,0,0,0,.1,0,0,0,0,0,0,0,0,0,0,0,0,0,0,0,0,0,0,0,0,0,0,0-.1,0,0,0,0,0,0,0h0s0,0,0,0c0,0,0,0,0,0,0,0,0,0,0,0h0s0,0,0,0h0s0,0,0,0c0,0,0,0,0,0h0s0,0,0,0h0s-.1.1-.1.1c0,0,0,0,0,0s0,0,0,0h0c0,0,0,0,0,0h0c0,0,0,0,0,0,0,0,0,0,0,0,0,0,.5,0,.5,0,0,0,0,0,0,0h0s0,0,0,0c0,0,0,0-.2-.1,0,0,0,0-.1,0h-.2c0,0-.1,0-.2,0,0,0,0,0,0,0,0,0,0,0,0,0h0s0,0,0,0c0,0,.2,0,.4,0h0c0,0,0-.1,0-.1,0,0,0,0,0,0,0,0,0,0,0,0h0s0,0,0,0c0,0,0,0,0,0h0s0,0,.1,0c0,0,0,0,0,0h.2ZM148.8,37.1s0,0,0,0c0,0,0,0,0,0h0c0,0,0,0,0,0h0ZM149,37h0s0,0,0,0h0s0,0,0,0c0,0,0,0-.1,0h-.1s0,0,0,0h0ZM149.6,37.2h0s0,0,0,0c0,0,0,0,0,0,0,0,0,0,0,0h0s0,0,0,0c0,0,0-.2,0-.3,0,0-.2-.1-.2-.1h-.2c0,0-.1,0-.1,0h0c.2,0,.5.1.7.4h0ZM148.1,37.3s0,0,0,0c0,0,0,0,0,0s0,0,0,0h0c0,0,0,0,0-.1,0,0,0,0,0,0h0c0,0,0,.1,0,.1,0,.1.1.2.2.3,0,0,0,0,0,0s0,0,0,0h.1c0,0,.1,0,.2-.1h0s-.6,0-.6,0h0ZM148.4,36.6s0,0,0,0c0,0,0,0,0,0,0,0,0,0,0,0h0ZM146.8,36.5c0,0,0-.2,0-.2,0,0,0,0,0,0h0s0,0-.1,0c0,0-.1.2-.1.2s0,.1,0,.1c0,0,0,0,0,0,0,0,0,0,0,0,0,0,0,0,0-.1h0ZM146.8,36.8h0c0,0,0,.1,0,.1s0,.1,0,.2c0,0,0,0,0,0h0s0,0,0,0c0,0,.1,0,.1,0,0,0,0,0,0,0h0c0,0,0,0,0,0h0s0,0,0,0h0c0,0,0,0,0-.1h0ZM147.8,35.4h-.1c0,.1-.1.2-.1.3,0,0,0,0,0,0h0s0,0,0,0h0c0,0,0,.1,0,.1h0s0,0,0,0c0,0,.2,0,.2,0,0,0,0,0,0,0,0-.1,0-.2,0-.2h0c0,0,0-.1,0-.1,0,0,0-.1,0-.2,0,0,0,0,0,0,0,0,0,0,0,0h0s0,0-.1,0c0,0,0,0,0,0h0ZM147.4,35.6c0,0,0,0,0,.1s0,0,0,0h0s0,0,0,0h0c0,0,0-.1,0-.2h0ZM149.4,34.7h0s0,0,0,0c0,0,0,0,0,0,0,0,0,0,0,0,0,0,0,0,0,0h0s0,0,0,0M148.9,35.2s0,0,0,0c0,0,0-.1,0-.2h0s0,.3,0,.3M149.1,36.6h0s0,0,0,0c0,0-.2.1-.3.1,0,0-.2,0-.3,0,0,0,0,0,0,0,0,0,0,0,0,0,0,0-.2.2-.3.2h0s0,0,0,0c0,0,.1-.1.2-.2,0,0,0,0,0-.1h0c0-.1.4-.1.5-.2"/>
  <rect class="st4" x="150.6" y="9.1" width=".4" height="3"/>
  <rect class="st4" x="151.2" y="9.1" width=".4" height="3"/>
  <rect class="st4" x="151.9" y="9.1" width=".4" height="3"/>
  <rect class="st4" x="152.6" y="9.1" width=".4" height="3"/>
  <path class="st4" d="M150.7,13.8c0,0-.1,0-.2,0v6.2c0,0,.1,0,.2,0v-6.1"/>
  <path class="st4" d="M149.6,15.3v-6.2h-.4v5.1c.2.3.3.7.4,1.1"/>
  <path class="st4" d="M149.9,20c.1,0,.3,0,.4,0v-6.2c0,0-.2,0-.4,0v6.2"/>
  <path class="st4" d="M148.9,13.7v-4.6h-.4v4.2c.1.1.3.3.4.5"/>
  <rect class="st4" x="149.9" y="9.1" width=".4" height="3"/>
  <rect class="st4" x="153.2" y="9.1" width=".4" height="3"/>
  <rect class="st4" x="154.6" y="9.1" width=".4" height="3"/>
  <path class="st4" d="M154.9,13.9c-.2,0-.3,0-.3,0v2.2h.2c0,0,.1,0,.2,0v-2.2h0"/>
  <path class="st4" d="M155.6,15.2v-1.2c-.1,0-.2,0-.4,0v2.1c.2,0,.3-.3.4-.9"/>
  <path class="st4" d="M154.9,17.9s0,0,0,0h-.3v2c0,0,.2,0,.4,0v-2"/>
  <rect class="st4" x="153.9" y="9.1" width=".4" height="3"/>
  <rect class="st4" x="157.2" y="9.1" width=".4" height="3"/>
  <path class="st4" d="M155.9,14.2v.8h.3c0-.4-.2-.6-.3-.8"/>
  <path class="st4" d="M148.6,20.5v7.2h.2c0,0,.2,0,.2,0v-7.6c-.1.2-.2.3-.4.5"/>
  <rect class="st4" x="156.6" y="9.1" width=".4" height="3"/>
  <rect class="st4" x="155.2" y="9.1" width=".4" height="3"/>
  <rect class="st4" x="155.9" y="9.1" width=".4" height="3"/>
  <polyline class="st4" points="152.6 21.7 152.6 26.3 152.9 26.1 152.9 21.7 152.6 21.7"/>
  <polyline class="st4" points="159.2 22.4 159.6 22.1 159.6 9.1 159.2 9.1 159.2 22.4"/>
  <polyline class="st4" points="158.6 22.9 158.9 22.6 158.9 9.1 158.6 9.1 158.6 22.9"/>
  <polyline class="st4" points="157.3 15.7 157.3 19.1 157.2 19.1 157.2 23.8 157.6 23.5 157.6 15.7 157.3 15.7"/>
  <polyline class="st4" points="157.9 12.1 158 12.1 158 15.7 157.9 15.7 157.9 23.4 158.3 23.1 158.3 9.1 157.9 9.1 157.9 12.1"/>
  <polyline class="st4" points="156.6 19.1 156.6 24.2 156.9 24 156.9 19.1 156.6 19.1"/>
  <polyline class="st4" points="159.9 21.9 160.3 21.6 160.3 9.1 159.9 9.1 159.9 21.9"/>
  <polyline class="st4" points="162.6 9.1 162.6 9.8 162.9 9.3 162.9 9.1 162.6 9.1"/>
  <polyline class="st4" points="160.6 21.3 160.9 21 160.9 9.1 160.6 9.1 160.6 21.3"/>
  <polyline class="st4" points="161.9 10.5 162.3 10.1 162.3 9.1 161.9 9.1 161.9 10.5"/>
  <polyline class="st4" points="161.2 11.3 161.6 10.9 161.6 9.1 161.2 9.1 161.2 11.3"/>
  <polyline class="st4" points="151.2 21.7 151.2 26.9 151.6 26.7 151.6 21.7 151.2 21.7"/>
  <polyline class="st4" points="155.9 19.1 155.9 24.6 156.3 24.4 156.3 19.1 155.9 19.1"/>
  <polyline class="st4" points="151.9 21.7 151.9 26.6 152.3 26.4 152.3 21.7 151.9 21.7"/>
  <path class="st4" d="M149.2,19.6v8.1h.4v-9.2c0,.4-.2.8-.4,1.1"/>
  <polyline class="st4" points="149.9 21.7 149.9 27.4 150.3 27.3 150.3 21.7 149.9 21.7"/>
  <polyline class="st4" points="150.6 21.7 150.6 27.2 150.9 27 150.9 21.7 150.6 21.7"/>
  <path class="st4" d="M155.2,18v2c.1,0,.2,0,.4,0v1.7h-.4v3.3l.4-.2v-5.8c-.1-.6-.2-.8-.4-.9"/>
  <polyline class="st4" points="154.6 21.7 154.6 25.3 154.9 25.1 154.9 21.7 154.6 21.7"/>
  <polyline class="st4" points="153.2 21.7 153.2 26 153.6 25.8 153.6 21.7 153.2 21.7"/>
  <polyline class="st4" points="153.9 21.7 153.9 25.7 154.3 25.5 154.3 21.7 153.9 21.7"/>
  <path class="st4" d="M20.7,32.8c0,1.2.2,2,1.5,2.1l2.2.2v1.3h-14.2v-1.3l2.3-.2c1.3,0,1.4-.9,1.4-2.1V10.1h-1.6c-3.6,0-4.1,2.2-5.6,6.2h-1.3v-7.8h23.7v7.8h-1.3c-1.5-4-2-6.2-5.6-6.2h-1.6v22.7"/>
  <path class="st4" d="M41.2,32.7c0,2,.3,2.3,3,2.3v1.3h-12.8v-1.3c2.8,0,3-.3,3-2.3V12c0-2-.3-2.2-3-2.3v-1.2h12.8v1.2c-2.6.1-3,.3-3,2.3v20.7"/>
  <path class="st4" d="M46.1,36.3v-1.3c2.5-.3,3.1,0,3.4-2.8.1-1.4.2-3.4.2-6.1v-14.1c0-2-.5-2.2-3.2-2.3v-1.2h10.2c1.7,4.5,6,14.7,7.2,17.8h.1c2.1-5.6,4.4-12.6,6.3-17.8h9.9v1.2c-2.8.1-3,.3-3,2.4v20.7c0,2,.3,2.3,3,2.3v1.3h-12.6v-1.3c2.6-.2,3-.3,3-2.3V12.5h-.1c-2.3,6.5-6.5,19.1-8,23.8h-2.3c-2.4-6.6-6.2-17.2-8.7-23.8h-.1v13.5c0,2.8,0,4.6.2,6.1.3,3,1.4,2.6,3.9,2.8v1.3h-9.6"/>
  <path class="st4" d="M85.5,12.1c0-2-.4-2.2-3.1-2.4v-1.2h21.7v7.5h-1.3c-1.3-4-2.3-5.9-6.4-5.9h-2.7c-1.1,0-1.4.3-1.4,1.4v9.5h3.4c2.7,0,3.2-.6,4-3.8h1.3v9.5h-1.3c-.7-3.1-1.2-4-4-4h-3.4v9.1c0,2.6.3,2.9,4.8,2.9s5.8-2.7,7.3-6.9h1.3l-.7,8.5h-22.4v-1.3c2.7-.1,3-.3,3-2.3V12.1"/>
  <path class="st4" d="M124.7,16.3c-1.2-4.8-3.8-7-6.4-7s-4.1,1.5-4.1,4.2,2.9,4.5,6,6c3.4,1.6,7.2,3.4,7.2,8.7s-2.3,8.8-10.4,8.8-6.1-.4-8.3-2.3l-.6-7.4h1.2c1.6,5.1,4.6,8.2,7.7,8.2s4.3-1.9,4.3-4.4-1.4-4.1-5.1-5.9c-4.2-2-7.8-3.8-7.8-9.1s2.9-8.5,9.9-8.5,5.2.5,7.4,1.8v6.7h-1.1"/>
  <path class="st4" d="M169.8,36.3v-1.3c2.5-.3,3.1,0,3.4-2.8.1-1.4.2-3.4.2-6.1v-14.1c0-2-.5-2.2-3.2-2.3v-1.2h10.2c1.7,4.5,6,14.7,7.2,17.8h.1c2.1-5.6,4.4-12.6,6.3-17.8h9.9v1.2c-2.8.1-3,.3-3,2.4v20.7c0,2,.3,2.3,3,2.3v1.3h-12.6v-1.3c2.6-.2,3-.3,3-2.3V12.5h-.1c-2.3,6.5-6.5,19.1-8,23.8h-2.3c-2.4-6.6-6.2-17.2-8.7-23.8h-.1v13.5c0,2.8,0,4.6.2,6.1.3,3,1.4,2.6,3.9,2.8v1.3h-9.6"/>
  <path class="st4" d="M220.1,36.3v-1.2l2.4-.3c.8,0,.9-.6.6-1.4-.6-2.1-1.7-5.4-2.3-7.1h-8c-.8,2.7-1.6,5.1-2.1,7.3-.2.8-.2,1.2.7,1.3l2.5.2v1.3h-8.8v-1.3c2.1-.1,2.5-.4,3.1-1.9,1.6-3.5,6.2-17.3,8.7-24.9h5.1c2.1,6.6,6.4,19.7,8.3,24.9.6,1.5,1.1,1.8,3.1,1.9v1.2h-13.3M216.9,13.6h-.1c-.6,2-2.5,8.4-3.4,11h6.9c-.7-2.4-2.6-8.4-3.4-11Z"/>
  <path class="st4" d="M244.5,31.8c0,2.5,1,2.9,4.2,2.9,4.6,0,5.3-2.8,6.8-6.5h1.3l-.5,8.2h-21.6v-1.3c2.8-.1,3.1-.3,3.1-2.3V12c0-2-.3-2.2-3.1-2.3v-1.2h13.4v1.2c-3.2,0-3.5.3-3.5,2.3v19.8"/>
  <path class="st4" d="M270.6,32.8c0,1.2.2,2,1.5,2.1l2.2.2v1.3h-14.2v-1.3l2.3-.2c1.3,0,1.4-.9,1.4-2.1V10.1h-1.6c-3.6,0-4.1,2.2-5.6,6.2h-1.3v-7.8h23.7v7.8h-1.3c-1.5-4-2-6.2-5.6-6.2h-1.6v22.7"/>
  <g class="st6">
    <path class="st4" d="M292.1,36.3v-1.2l2.4-.3c.8,0,.9-.6.6-1.4-.6-2.1-1.7-5.4-2.3-7.1h-8c-.8,2.7-1.6,5.1-2.1,7.3-.2.8-.2,1.2.7,1.3l2.5.2v1.3h-8.8v-1.3c2.1-.1,2.5-.4,3.1-1.9,1.6-3.5,6.2-17.3,8.7-24.9h5.1c2.1,6.6,6.4,19.7,8.3,24.9.6,1.5,1.1,1.8,3.1,1.9v1.2h-13.3M288.8,13.6h-.1c-.6,2-2.5,8.4-3.4,11h6.9c-.7-2.4-2.6-8.4-3.4-11Z"/>
  </g>
  <path class="st4" d="M144.7,12.5c3.1,0,4.5,1.7,4.5,4.4s-1.4,4.4-4.5,4.4-4.5-1.7-4.5-4.4,1.4-4.4,4.5-4.4h0M144.6,13c-1.2,0-1.7,1.2-1.7,3.9s.3,3.9,1.7,3.9,1.7-1.5,1.7-3.9,0-3.9-1.7-3.9h0Z"/>
  <path class="st4" d="M157.4,12.7v2.4h-.5c-.4-1.1-.5-1.8-1.8-1.8h-.8c-.4,0-.5,0-.5.4v3h1c.7,0,1-.1,1.2-1.1h.5v3h-.5c-.2-1-.5-1.2-1.2-1.2h-1v2.5c0,.6,0,.6,1.2.7v.5h-4.6v-.5c.9,0,.9,0,.9-.7v-6c0-.6,0-.7-.9-.7v-.5h7.1"/>
</svg>